<?xml version="1.0" encoding="UTF-8"?>
<svg xmlns="http://www.w3.org/2000/svg" xmlns:xlink="http://www.w3.org/1999/xlink" width="20px" height="20px" viewBox="0 0 20 20" version="1.1">
<g id="surface1">
<path style=" stroke:none;fill-rule:nonzero;fill:rgb(100%,57.647059%,0%);fill-opacity:1;" d="M 19.835938 5.546875 C 19.71875 5.382812 19.53125 5.28125 19.328125 5.28125 L 6.066406 5.28125 L 5.0625 1.820312 C 4.667969 0.457031 3.730469 0.308594 3.347656 0.308594 L 0.671875 0.308594 C 0.328125 0.308594 0.0507812 0.589844 0.0507812 0.929688 C 0.0507812 1.273438 0.328125 1.550781 0.671875 1.550781 L 3.347656 1.550781 C 3.433594 1.550781 3.691406 1.550781 3.867188 2.160156 L 7.320312 14.855469 C 7.394531 15.121094 7.640625 15.308594 7.917969 15.308594 L 16.355469 15.308594 C 16.617188 15.308594 16.851562 15.144531 16.9375 14.894531 L 19.914062 6.113281 C 19.980469 5.921875 19.953125 5.710938 19.835938 5.546875 Z M 15.917969 14.066406 L 8.390625 14.066406 L 6.414062 6.523438 L 18.449219 6.523438 Z M 14.6875 16.566406 C 13.824219 16.566406 13.125 17.265625 13.125 18.128906 C 13.125 18.992188 13.824219 19.691406 14.6875 19.691406 C 15.550781 19.691406 16.25 18.992188 16.25 18.128906 C 16.25 17.265625 15.550781 16.566406 14.6875 16.566406 Z M 9.0625 16.566406 C 8.199219 16.566406 7.5 17.265625 7.5 18.128906 C 7.5 18.992188 8.199219 19.691406 9.0625 19.691406 C 9.925781 19.691406 10.625 18.992188 10.625 18.128906 C 10.625 17.265625 9.925781 16.566406 9.0625 16.566406 Z M 9.0625 16.566406 "/>
</g>
</svg>
